<svg xmlns="http://www.w3.org/2000/svg" width="28" height="17" viewBox="0 0 28 17">
  <defs>
    <style>
      .cls-1 {
        fill: #60d0ac;
        fill-rule: evenodd;
      }
    </style>
  </defs>
  <path id="_-e-coaching" data-name="-e-coaching" class="cls-1" d="M51.655,613.164a1.727,1.727,0,0,0,1.063-1.6V599.73a1.715,1.715,0,0,0-1.7-1.728H30.979a1.715,1.715,0,0,0-1.7,1.728v11.834a1.728,1.728,0,0,0,1.062,1.6H27c0,1.455.557,1.832,1.241,1.832h25.52c0.683,0,1.24-.377,1.24-1.832H51.655Zm-8.068,1.021H38.414v-0.893h5.173v0.893Zm2.9-3.408h-4.7l-0.65-1.32,0.441-.445-0.179-.447h-0.79l-0.179.447,0.44,0.445-0.649,1.32H35.513v-0.562a2.4,2.4,0,0,1,.5-0.353c0.316-.17.627-0.347,0.948-0.5s0.636-.282.955-0.419c0.3-.129.6-0.249,0.9-0.381a0.273,0.273,0,0,0,.125-0.132c0.066-.17.124-0.346,0.175-0.519a0.33,0.33,0,0,1,.234-0.3,0.18,0.18,0,0,0,.1-0.133c0.033-.254.058-0.511,0.078-0.769a0.257,0.257,0,0,0-.06-0.166,1.66,1.66,0,0,1-.395-0.876,3.97,3.97,0,0,0-.165-0.486c-0.062-.221-0.115-0.444-0.164-0.669-0.019-.081-0.009-0.168-0.022-0.251a0.191,0.191,0,0,1,.128-0.26,0.219,0.219,0,0,0,.074-0.168c0.006-.357,0-0.716.005-1.075,0-.22,0-0.44.014-0.659a1.386,1.386,0,0,1,.577-0.971,3.6,3.6,0,0,1,1.522-.678c0.286-.069.58-0.109,0.87-0.156a1.273,1.273,0,0,1,.24,0c0.012,0.021.025,0.041,0.039,0.062a1.74,1.74,0,0,0-.182.134,0.182,0.182,0,0,0,.019.316q0.4,0.339.785,0.688a1.01,1.01,0,0,1,.313.779q0,0.783,0,1.564a0.218,0.218,0,0,0,.122.261,0.127,0.127,0,0,1,.055.1c-0.022.268-.051,0.532-0.079,0.8a0.052,0.052,0,0,1-.009.031,7.266,7.266,0,0,0-.434,1.156,0.216,0.216,0,0,1-.019.042,1.8,1.8,0,0,0-.222,1.256,0.166,0.166,0,0,0,.065.128,0.384,0.384,0,0,1,.2.286,4.5,4.5,0,0,0,.188.548,0.352,0.352,0,0,0,.186.149,28.056,28.056,0,0,1,2.832,1.252,1.766,1.766,0,0,1,.476.354v0.584h0Z" transform="translate(-27 -598)"/>
</svg>
