<svg xmlns="http://www.w3.org/2000/svg" width="28" height="22" viewBox="0 0 28 22">
  <defs>
    <style>
      .cls-1 {
        fill: #60d0ac;
        fill-rule: evenodd;
      }
    </style>
  </defs>
  <path id="_-e-homewhite" data-name="-e-homewhite" class="cls-1" d="M41,547.439l-9.99,8.13a0.219,0.219,0,0,1-.008.052,0.232,0.232,0,0,0-.009.051V563.9a1.047,1.047,0,0,0,.33.772A1.075,1.075,0,0,0,32.1,565h6.671v-6.587h4.448V565h6.671a1.073,1.073,0,0,0,.782-0.327,1.046,1.046,0,0,0,.33-0.771v-8.233a0.244,0.244,0,0,0-.017-0.1Zm13.811,6.278-3.8-3.122v-7a0.53,0.53,0,0,0-.157-0.395,0.546,0.546,0,0,0-.4-0.154H47.115a0.548,0.548,0,0,0-.4.154,0.532,0.532,0,0,0-.156.395v3.344l-4.239-3.5a2.177,2.177,0,0,0-2.641,0L27.188,553.717a0.5,0.5,0,0,0-.191.368,0.556,0.556,0,0,0,.122.4l1.077,1.269a0.6,0.6,0,0,0,.365.189,0.657,0.657,0,0,0,.417-0.12L41,545.93l12.022,9.9a0.544,0.544,0,0,0,.365.119h0.052a0.6,0.6,0,0,0,.365-0.188l1.077-1.269a0.551,0.551,0,0,0,.121-0.4A0.493,0.493,0,0,0,54.81,553.717Z" transform="translate(-27 -543)"/>
</svg>
