<svg xmlns="http://www.w3.org/2000/svg" width="36" height="38" viewBox="0 0 36 38">
  <defs>
    <style>
      .cls-1 {
        fill: #60d0ac;
        fill-rule: evenodd;
      }
    </style>
  </defs>
  <path id="_-e-notifications" data-name="-e-notifications" class="cls-1" d="M1538.79,81.428a27.092,27.092,0,0,1-2.1-10.571,7.481,7.481,0,0,0-2.07-5.556,9.4,9.4,0,0,0-5.72-2.481,1.82,1.82,0,0,0,.18-0.785,1.961,1.961,0,0,0-.61-1.442,2.116,2.116,0,0,0-2.94,0,1.924,1.924,0,0,0-.61,1.442,1.821,1.821,0,0,0,.18.785,9.406,9.406,0,0,0-5.72,2.481,7.481,7.481,0,0,0-2.07,5.556,27.092,27.092,0,0,1-2.1,10.571,21.664,21.664,0,0,1-6.21,8.43,2.574,2.574,0,0,0,.82,1.908,2.7,2.7,0,0,0,1.95.806h9.69a5.183,5.183,0,0,0,1.62,3.838,5.627,5.627,0,0,0,7.84,0,5.183,5.183,0,0,0,1.62-3.838h9.69a2.7,2.7,0,0,0,1.95-.806,2.574,2.574,0,0,0,.82-1.908A21.664,21.664,0,0,1,1538.79,81.428ZM1527,96.3a3.7,3.7,0,0,1-2.69-1.092,3.542,3.542,0,0,1-1.12-2.64,0.306,0.306,0,0,1,.35-0.34,0.3,0.3,0,0,1,.34.34,2.921,2.921,0,0,0,.92,2.152,3.05,3.05,0,0,0,2.2.9A0.339,0.339,0,1,1,1527,96.3Z" transform="translate(-1509 -60)"/>
</svg>
